# xmcd
#
# Track frame offsets: 
#        150
#        13312
#        25415
#        36816
#        46871
#        59525
#        72088
#        84073
#        99673
#        115085
#        125865
#        139375
#        150698
#        161171
#        170983
#
# Disc length: 2480 seconds
#
# Revision: 0
# Processed by: cddbd v1.5.1PL0 Copyright (c) Steve Scherf et al.
# Submitted via: ExactAudioCopy v0.95a4
#
DISCID=d409ae0f
DTITLE=Tim Crouch - Front Porch Fiddlin'
DYEAR=2001
DGENRE=Country
TTITLE0=Bill Cheatham
TTITLE1=West Virginia Hornpipe
TTITLE2=White Horse Breakdown
TTITLE3=49 Cats In A Rain Barrel
TTITLE4=Dill Pickle Rag
TTITLE5=Festival Waltz
TTITLE6=Grassy Fiddle Blues
TTITLE7=Dusty Miller
TTITLE8=Darkness On The Delta
TTITLE9=Black Mountain Rag
TTITLE10=Roxanne Waltz
TTITLE11=Texas Crapshooter
TTITLE12=Salty
TTITLE13=Lonesome Moonlight Waltz
TTITLE14=Don't Let Your Deal Go Down
EXTD=
EXTT0=
EXTT1=
EXTT2=
EXTT3=
EXTT4=
EXTT5=
EXTT6=
EXTT7=
EXTT8=
EXTT9=
EXTT10=
EXTT11=
EXTT12=
EXTT13=
EXTT14=
PLAYORDER=
